<svg width="393" height="100" viewBox="0 0 393 100" fill="none" xmlns="http://www.w3.org/2000/svg">
<path d="M37.3068 0C36.2601 0 35.4115 0.848586 35.4115 1.89533V25.0711L15.3407 13.4832C14.4342 12.9599 13.275 13.2705 12.7516 14.1769L0.254265 35.823C-0.269109 36.7296 0.0414969 37.8887 0.94801 38.4121L21.0188 50L0.947981 61.5878C0.0414679 62.1112 -0.269138 63.2704 0.254236 64.1769L12.7516 85.823C13.275 86.7295 14.4342 87.0401 15.3407 86.5167L35.4115 74.9289V98.1047C35.4115 99.1514 36.2601 100 37.3068 100H62.3016C63.3483 100 64.1969 99.1514 64.1969 98.1047V74.9289L84.2677 86.5167C85.1742 87.0401 86.3334 86.7295 86.8568 85.8231L99.3541 64.177C99.8775 63.2704 99.5669 62.1112 98.6604 61.5879L80.4452 51.0713H67.779C67.2572 51.0713 66.7774 50.7854 66.529 50.3265L61.635 41.2867L56.4944 70.0028C56.3714 70.69 55.7676 71.1862 55.0696 71.1737C54.3717 71.1611 53.7861 70.6436 53.6878 69.9525L48.9362 36.533L46.7454 49.8801C46.6326 50.567 46.0389 51.0713 45.3427 51.0713H31.4849C30.6999 51.0713 30.0634 50.4349 30.0634 49.6498C30.0634 48.8647 30.6999 48.2283 31.4849 48.2283H44.1355L47.6343 26.913C47.748 26.2203 48.3503 25.7143 49.0522 25.7218C49.7542 25.7293 50.3455 26.2481 50.4443 26.9431L55.2562 60.7861L59.5522 36.7878C59.6586 36.1931 60.1292 35.7307 60.7256 35.6348C61.322 35.5388 61.9139 35.8303 62.2015 36.3615L68.6259 48.2283H81.6582L98.6604 38.4121C99.5669 37.8887 99.8775 36.7295 99.3541 35.823L86.8568 14.1769C86.3334 13.2704 85.1742 12.9598 84.2677 13.4832L64.1969 25.0711V1.89533C64.1969 0.848586 63.3483 0 62.3016 0H37.3068Z" fill="#3A6DF0"/>
<path d="M133.158 67.5V32.5H139.408L151.258 55.8L163.058 32.5H169.308V67.5H164.008V41.65L153.308 62.5H149.208L138.458 41.7V67.5H133.158ZM185.42 67.5V32.5H207.67V36.8H190.72V47.7H206.17V51.9H190.72V63.2H207.67V67.5H185.42ZM222.985 67.5V32.5H234.335C238.435 32.5 241.801 33.2167 244.435 34.65C247.101 36.0833 249.068 38.1167 250.335 40.75C251.635 43.35 252.285 46.45 252.285 50.05C252.285 53.6167 251.635 56.7167 250.335 59.35C249.068 61.95 247.101 63.9667 244.435 65.4C241.801 66.8 238.435 67.5 234.335 67.5H222.985ZM228.285 63H234.135C237.301 63 239.801 62.4833 241.635 61.45C243.501 60.4167 244.835 58.9333 245.635 57C246.468 55.0667 246.885 52.75 246.885 50.05C246.885 47.35 246.468 45.0167 245.635 43.05C244.835 41.0833 243.501 39.5833 241.635 38.55C239.801 37.4833 237.301 36.95 234.135 36.95H228.285V63ZM267.141 67.5V32.5H278.491C282.591 32.5 285.957 33.2167 288.591 34.65C291.257 36.0833 293.224 38.1167 294.491 40.75C295.791 43.35 296.441 46.45 296.441 50.05C296.441 53.6167 295.791 56.7167 294.491 59.35C293.224 61.95 291.257 63.9667 288.591 65.4C285.957 66.8 282.591 67.5 278.491 67.5H267.141ZM272.441 63H278.291C281.457 63 283.957 62.4833 285.791 61.45C287.657 60.4167 288.991 58.9333 289.791 57C290.624 55.0667 291.041 52.75 291.041 50.05C291.041 47.35 290.624 45.0167 289.791 43.05C288.991 41.0833 287.657 39.5833 285.791 38.55C283.957 37.4833 281.457 36.95 278.291 36.95H272.441V63ZM327.447 68.1C323.98 68.1 320.947 67.3333 318.347 65.8C315.747 64.2667 313.714 62.15 312.247 59.45C310.78 56.7167 310.047 53.5667 310.047 50C310.047 46.4333 310.78 43.3 312.247 40.6C313.714 37.8667 315.747 35.7333 318.347 34.2C320.947 32.6667 323.98 31.9 327.447 31.9C330.914 31.9 333.947 32.6667 336.547 34.2C339.147 35.7333 341.164 37.8667 342.597 40.6C344.064 43.3 344.797 46.4333 344.797 50C344.797 53.5667 344.064 56.7167 342.597 59.45C341.164 62.15 339.147 64.2667 336.547 65.8C333.947 67.3333 330.914 68.1 327.447 68.1ZM327.447 63.35C329.847 63.35 331.93 62.8167 333.697 61.75C335.497 60.6833 336.897 59.15 337.897 57.15C338.897 55.15 339.397 52.7667 339.397 50C339.397 47.2333 338.897 44.85 337.897 42.85C336.897 40.85 335.497 39.3167 333.697 38.25C331.93 37.1833 329.847 36.65 327.447 36.65C325.047 36.65 322.947 37.1833 321.147 38.25C319.347 39.3167 317.947 40.85 316.947 42.85C315.98 44.85 315.497 47.2333 315.497 50C315.497 52.7667 315.98 55.15 316.947 57.15C317.947 59.15 319.347 60.6833 321.147 61.75C322.947 62.8167 325.047 63.35 327.447 63.35ZM375.301 68.1C371.835 68.1 368.835 67.35 366.301 65.85C363.801 64.3167 361.868 62.2 360.501 59.5C359.135 56.7667 358.451 53.6167 358.451 50.05C358.451 46.45 359.135 43.3 360.501 40.6C361.868 37.8667 363.801 35.7333 366.301 34.2C368.835 32.6667 371.835 31.9 375.301 31.9C379.401 31.9 382.751 32.9 385.351 34.9C387.951 36.9 389.601 39.7 390.301 43.3H384.401C383.935 41.2667 382.935 39.65 381.401 38.45C379.868 37.25 377.818 36.65 375.251 36.65C371.751 36.65 368.985 37.85 366.951 40.25C364.918 42.6167 363.901 45.8833 363.901 50.05C363.901 54.1833 364.918 57.4333 366.951 59.8C368.985 62.1667 371.751 63.35 375.251 63.35C377.818 63.35 379.868 62.7833 381.401 61.65C382.935 60.5167 383.935 58.9667 384.401 57H390.301C389.601 60.4667 387.951 63.1833 385.351 65.15C382.751 67.1167 379.401 68.1 375.301 68.1Z" fill="white"/>
</svg>
