<svg width="51" height="51" viewBox="0 0 51 51" fill="none" xmlns="http://www.w3.org/2000/svg">
<path d="M19.2513 0.5C18.7279 0.5 18.3036 0.924293 18.3036 1.44767V13.0355L8.26825 7.2416C7.81498 6.97993 7.2354 7.13523 6.97371 7.58847L0.725033 18.4115C0.463346 18.8648 0.618649 19.4443 1.07191 19.7061L11.1073 25.5L1.07189 31.2939C0.618634 31.5556 0.463331 32.1352 0.725018 32.5885L6.97369 43.4115C7.23538 43.8648 7.81498 44.0201 8.26823 43.7584L18.3036 37.9644V49.5523C18.3036 50.0757 18.7279 50.5 19.2513 50.5H31.7487C32.2721 50.5 32.6963 50.0757 32.6963 49.5523V37.9644L42.7317 43.7584C43.185 44.0201 43.7646 43.8648 44.0263 43.4115L50.2749 32.5885C50.5366 32.1352 50.3813 31.5556 49.9281 31.2939L40.8205 26.0357H34.4874C34.2265 26.0357 33.9866 25.8927 33.8624 25.6633L31.4154 21.1433L28.8451 35.5014C28.7836 35.845 28.4817 36.0931 28.1327 36.0868C27.7837 36.0806 27.4909 35.8218 27.4418 35.4762L25.066 18.7665L23.9706 25.44C23.9142 25.7835 23.6173 26.0357 23.2692 26.0357H16.3404C15.9478 26.0357 15.6296 25.7174 15.6296 25.3249C15.6296 24.9324 15.9478 24.6142 16.3404 24.6142H22.6656L24.415 13.9565C24.4719 13.6101 24.773 13.3571 25.124 13.3609C25.475 13.3647 25.7706 13.6241 25.82 13.9715L28.226 30.8931L30.374 18.8939C30.4272 18.5966 30.6625 18.3654 30.9607 18.3174C31.2589 18.2694 31.5548 18.4151 31.6986 18.6807L34.9108 24.6142H41.427L49.9281 19.7061C50.3813 19.4443 50.5366 18.8648 50.2749 18.4115L44.0263 7.58847C43.7646 7.1352 43.185 6.9799 42.7317 7.2416L32.6963 13.0355V1.44767C32.6963 0.924293 32.2721 0.5 31.7487 0.5H19.2513Z" fill="#3A6DF0"/>
</svg>
